# xmcd CD database file
#
# Track frame offsets:
#	150
#	25398
#	45405
#	52742
#
# Disc length: 958 seconds
#
# Revision: 0
# Processed by: cddbd v1.5.1PL0 Copyright (c) Steve Scherf et al.
# Submitted via: CDex 1.51
#
DISCID=2503bc04
DTITLE=岩男潤子 - sora no iro...umi no iro...
DYEAR=2005
DGENRE=JPop
TTITLE0=海の色
TTITLE1=小さな窓
TTITLE2=Sound collage #1-
TTITLE3=空の色
EXTD=YEAR: 2005
EXTT0=
EXTT1=
EXTT2=
EXTT3=
PLAYORDER=
